<?xml version="1.0"?>
<svg xmlns="http://www.w3.org/2000/svg" xmlns:xlink="http://www.w3.org/1999/xlink" id="Gradient" viewBox="0 0 512 512" width="512" height="512"><defs><linearGradient id="linear-gradient" x1="256" y1="400" x2="256" y2="112" gradientUnits="userSpaceOnUse"><stop offset="0" stop-color="#12c2e9"/><stop offset="0.5" stop-color="#c471ed"/><stop offset="1" stop-color="#f64f59"/></linearGradient></defs><path d="M136,320a24,24,0,1,0,24,24A24.027,24.027,0,0,0,136,320Zm0,32a8,8,0,1,1,8-8A8.009,8.009,0,0,1,136,352Zm248-32a24,24,0,1,0,24,24A24.027,24.027,0,0,0,384,320Zm0,32a8,8,0,1,1,8-8A8.009,8.009,0,0,1,384,352ZM240,248v16a8,8,0,0,1-16,0V248a8,8,0,0,1,16,0Zm248,56h-8V216a8.054,8.054,0,0,0-.108-1.315l-11.544-69.261A39.875,39.875,0,0,0,428.892,112H107.777A39.784,39.784,0,0,0,72,134.111L32.845,212.422A7.994,7.994,0,0,0,32,216v88H24a8,8,0,0,0-8,8v32a8,8,0,0,0,8,8H80.581a55.992,55.992,0,0,0,110.838,0H328.581a55.992,55.992,0,0,0,110.838,0H488a8,8,0,0,0,8-8V312A8,8,0,0,0,488,304ZM48,224H64v32H48Zm0,48H64v32H48Zm32.581,64H32V320H85.414A55.52,55.52,0,0,0,80.581,336ZM136,384a40,40,0,1,1,40-40A40.045,40.045,0,0,1,136,384Zm39.138-80a55.868,55.868,0,0,0-78.276,0H80V224h88a8,8,0,0,0,8-8V152a8,8,0,0,0-8-8H113.889a23.869,23.869,0,0,0-21.467,13.267L67.056,208H52.944l33.367-66.733A24,24,0,0,1,107.777,128H428.892a23.923,23.923,0,0,1,23.673,20.055L462.556,208H447.062l-5.374-42.971A24.035,24.035,0,0,0,417.88,144H200a8,8,0,0,0-8,8V304ZM120,176H100.944l5.789-11.578A7.956,7.956,0,0,1,113.889,160H160v48H128V184A8,8,0,0,0,120,176Zm-8,16v16H84.944l8-16Zm352,32v32H440a8.009,8.009,0,0,1-8-8V224h32Zm-33.062-16H384V160h33.88a8.01,8.01,0,0,1,7.931,7.013ZM368,160v48H320V160ZM208,208V160h96v48Zm96,16v80H208V224Zm24.581,112H191.419a55.52,55.52,0,0,0-4.833-16H333.414A55.52,55.52,0,0,0,328.581,336ZM384,384a40,40,0,1,1,40-40A40.045,40.045,0,0,1,384,384Zm39.138-80a55.868,55.868,0,0,0-78.276,0H320V224h96v24a24.027,24.027,0,0,0,24,24h24v32ZM480,336H439.419a55.52,55.52,0,0,0-4.833-16H480ZM168,256H136a8,8,0,0,1,0-16h32a8,8,0,0,1,0,16Z" style="fill:url(#linear-gradient)"/></svg>
